<?xml version="1.0" encoding="utf-8"?>
<!-- Generator: Adobe Illustrator 24.0.2, SVG Export Plug-In . SVG Version: 6.00 Build 0)  -->
<svg version="1.1" xmlns="http://www.w3.org/2000/svg" xmlns:xlink="http://www.w3.org/1999/xlink" x="0px" y="0px"
	 viewBox="0 0 100 100" style="enable-background:new 0 0 100 100;" xml:space="preserve">
<style type="text/css">
	.st0{fill:#910580;}
	.st1{fill:#FFFFFF;}
</style>
<g id="Capa_1">
</g>
<g id="Capa_2">
	<path class="st0" d="M82.61,100H17.39C7.78,100,0,92.22,0,82.61V17.39C0,7.78,7.78,0,17.39,0h65.23C92.22,0,100,7.78,100,17.39
		v65.23C100,92.22,92.22,100,82.61,100z"/>
	<g>
		<g>
			<path class="st1" d="M50.52,17.65c-13.53,0-24.49,10.01-24.49,22.37s10.97,22.37,24.49,22.37s24.49-10.01,24.49-22.37
				S64.05,17.65,50.52,17.65z M50.31,58.27c-7.2,0-13.04-8.26-13.04-18.46c0-10.19,5.84-18.46,13.04-18.46
				c7.2,0,13.04,8.26,13.04,18.46C63.35,50.01,57.51,58.27,50.31,58.27z"/>
		</g>
	</g>
	<path class="st1" d="M26.02,57.45c0,0,22.18,10.75,24.49,11.16c2.31,0.41,6.02,1.92,13.29,0.82c7.27-1.1,7.96-4.07,10.38-3.43
		c2.42,0.64-0.82,3.82-0.82,3.82l-10.89,11c0,0-1.33,1.6-2.84,1.6c-1.51,0-2.47-0.46-4.57-1.88s-9.97-7.23-12.76-9.24
		c-2.79-2.01-9.88-6.27-9.88-6.27s-5.85-3.06-6.68-3.34c-0.82-0.27-1.14-0.27-1.14-0.27L26.02,57.45z"/>
</g>
</svg>
